<?xml version="1.0" encoding="UTF-8" standalone="no"?>
<svg
   xmlns:dc="http://purl.org/dc/elements/1.1/"
   xmlns:cc="http://creativecommons.org/ns#"
   xmlns:rdf="http://www.w3.org/1999/02/22-rdf-syntax-ns#"
   xmlns:svg="http://www.w3.org/2000/svg"
   xmlns="http://www.w3.org/2000/svg"
   xmlns:sodipodi="http://sodipodi.sourceforge.net/DTD/sodipodi-0.dtd"
   xmlns:inkscape="http://www.inkscape.org/namespaces/inkscape"
   version="1.1"
   width="158.6707"
   height="48.517014"
   id="svg4790"
   viewBox="0 0 158.6707 48.517014"
   sodipodi:docname="business_card_main.cdr"
   inkscape:version="0.92.2 (30a58d1, 2017-08-07)">
  <metadata
     id="metadata4796">
    <rdf:RDF>
      <cc:Work
         rdf:about="">
        <dc:format>image/svg+xml</dc:format>
        <dc:type
           rdf:resource="http://purl.org/dc/dcmitype/StillImage" />
        <dc:title></dc:title>
      </cc:Work>
    </rdf:RDF>
  </metadata>
  <defs
     id="defs4794" />
  <sodipodi:namedview
     pagecolor="#ffffff"
     bordercolor="#666666"
     borderopacity="1"
     objecttolerance="10"
     gridtolerance="10"
     guidetolerance="10"
     inkscape:pageopacity="0"
     inkscape:pageshadow="2"
     inkscape:window-width="1301"
     inkscape:window-height="744"
     id="namedview4792"
     showgrid="false"
     fit-margin-top="0"
     fit-margin-left="0"
     fit-margin-right="0"
     fit-margin-bottom="0"
     inkscape:pagecheckerboard="true"
     inkscape:zoom="1.2646927"
     inkscape:cx="-55.11942"
     inkscape:cy="-24.021776"
     inkscape:window-x="65"
     inkscape:window-y="24"
     inkscape:window-maximized="1"
     inkscape:current-layer="svg4790" />
  <path
     d="M 13.1198,7.6933151 V 19.730915 h 3.4492 c 2.1972,0 3.9274,-0.5307 5.1798,-1.5815 1.2529,-1.0618 1.8791,-2.5262 1.8791,-4.3945 0,-1.9423 -0.6049,-3.4393 -1.8156,-4.4900999 -1.2206,-1.0508 -2.9617,-1.5715 -5.2433,-1.5715 z m 0,17.9607999 v 15.1569 h 3.4492 c 3.2692,0 5.6152,-0.5942 7.0376,-1.7719 1.4122,-1.1895 2.1229,-3.1216 2.1229,-5.8275 0,-2.6328 -0.7217,-4.5542 -2.1765,-5.7538 -1.4434,-1.199 -3.778,-1.8037 -6.984,-1.8037 z m 112.9425,15.1569 h 5.923 v 6.3686 h -20.0611 v -6.3686 h 5.9228 V 7.6933151 h -5.9871 v 7.2600999 h -7.3233 V 1.3255151 h 34.8372 V 14.953415 h -7.3244 V 7.6933151 h -5.9871 z m -48.6538,-17.6746 c 0.0501,1.5123 -0.0386,3.0552 -0.2656,4.6284 -0.1934,1.3334 -0.4833,2.6255 -0.87,3.8747 h 3.2341 c 0.871,3.2913 2.2192,5.7963 4.0552,7.5053 1.836,1.7087 4.1182,2.558 6.8564,2.558 2.0912,0 3.8532,-0.6582 5.2861,-1.9849 1.4329,-1.3271 2.1441,-2.9616 2.1441,-4.8829 0,-1.7413 -0.6154,-3.1626 -1.847,-4.2562 -1.2308,-1.1038 -3.3115,-2.0588 -6.2303,-2.8871 l -5.2226,-1.4647 c -2.9466,-0.8206 -5.3265,-1.8507 -7.1404,-3.0906 z m -48.6301,-2.3689 c 0.0355,-0.2449 0.074,-0.4879 0.1148,-0.7296 -1.2149,1.0012 -2.8049,1.7668 -4.767,2.2937 1.6637,0.4017 3.1204,0.9616 4.3707,1.6773 0.0281,-1.0607 0.1222,-2.1418 0.2815,-3.2414 z M 52.8332,7.0359151 c 9.512,0 17.2228,7.7104999 17.2228,17.2226999 0,9.5123 -7.7108,17.2233 -17.2228,17.2233 -9.5116,0 -17.2227,-7.711 -17.2227,-17.2233 0,-9.5122 7.7111,-17.2226999 17.2227,-17.2226999 z M 153.7673,40.811015 h 4.9034 v 6.3686 h -18.023 v -6.3686 h 4.9037 V 7.6933151 h -4.9037 v -6.3678 h 18.023 v 6.3678 h -4.9034 z M 31.85,11.658615 C 33.4114,8.9725151 35.5096,6.6487151 38.1466,4.6829151 42.3581,1.5435151 47.099,-0.00558487 52.3258,1.5128112e-5 56.6308,0.00501513 61.2371,1.0134151 65.0347,3.0362151 c 2.5605,1.3621 4.7732,3.1649 6.6597,5.421 0.455,0.5457 0.883,1.1018 1.2858,1.6678999 0.576,-2.2557999 1.7541,-4.2298999 3.5339,-5.9229999 2.6326,-2.5157 5.9227,-3.76919997 9.8601,-3.76919997 2.1237,0 4.0762,0.3296 5.8813,0.99859997 1.8042,0.6582 3.3539,1.624 4.6378,2.8976 v -3.0036 h 6.3686 V 14.953415 h -6.3686 c -0.7212,-2.7165 -1.8573,-4.7435 -3.3855,-6.0811999 -1.5392,-1.3377 -3.4818,-2.0061 -5.8484,-2.0061 -1.9953,0 -3.6198,0.5409 -4.8725,1.6345 -1.2523,1.0828 -1.8788,2.4731999 -1.8788,4.1501999 0,1.4326 0.4031,2.5682 1.1996,3.4075 0.7963,0.8388 2.1975,1.5491 4.214,2.1328 l 5.5616,1.5922 c 5.1168,1.4868 8.7256,3.3018 10.806,5.4558 2.0806,2.1447 3.1203,5.0216 3.1203,8.6191 0,4.2993 -1.3059,7.7386 -3.9055,10.3289 -2.6005,2.59 -6.05,3.8843 -10.3604,3.8843 -2.4508,0 -4.6913,-0.4034 -6.7184,-1.2096 -2.0276,-0.8076 -3.8004,-1.9959 -5.3183,-3.5671 v 3.8849 h -6.6232 v -8.6868 c -1.2572,1.7711 -2.7436,3.3534 -4.4538,4.7421 -2.6796,2.1637 -5.6109,3.6686 -8.7942,4.5037 -3.1841,0.837 -6.5761,1.0006 -10.1526,0.483 -6.8864,-0.9958 -12.2964,-4.1335 -16.243,-9.4028 l -0.0329,-0.0442 c -0.6996,2.0851 -1.8975,3.78 -3.5929,5.0828 -2.8982,2.2181 -7.2392,3.3222 -13.0454,3.3222 H 0 v -6.3686 H 4.9039 V 7.6933151 H 0 v -6.3678 h 16.569 c 4.957,0 8.7574,0.997 11.3891,3.0036 2.3162,1.7555 3.6136,4.2007 3.8919,7.3294999 z"
     style="fill:#ffffff;fill-rule:evenodd;fill-opacity:1"
     id="path4694"
     inkscape:connector-curvature="0" />
  <path
     d="m 100.849,51.377415 -1.9562,8.5201 c -0.2443,1.0661 -0.4646,1.8048 0.7206,1.8048 l 0.94,-0.2089 -0.1588,0.6565 c -0.8467,0.3317 -1.4128,0.5817 -2.2252,0.5817 -1.3603,0 -2.0551,-0.7452 -1.8343,-2.0685 0.032,-0.1936 0.0655,-0.3809 0.1063,-0.5592 0.1996,-0.8686 1.6285,-6.8825 1.6285,-7.2519 0,-0.7597 -0.6386,-0.7963 -1.2756,-0.8603 l 0.1324,-0.5372 3.8429,-0.1936 z m 3.9081,10.116 -0.1596,0.6565 c -0.8436,0.3308 -1.3578,0.5817 -2.1478,0.5817 -1.7609,0 -2.0806,-1.2283 -1.6855,-2.6306 0.1786,-0.6321 0.7906,-2.5571 0.7906,-3.2042 0,-0.5783 -0.2236,-0.7288 -0.8104,-0.7288 -0.3076,0 -0.6225,0.1102 -0.8949,0.2092 l 0.1613,-0.6568 c 1.0434,-0.4221 2.5628,-0.9893 3.488,-0.1636 0.6001,0.5358 0.5335,1.4579 0.3181,2.2198 -0.1718,0.6095 -0.7878,2.5504 -0.7878,3.1969 0,0.5755 0.2481,0.7288 0.8377,0.7288 z m 0.1636,-8.8954 c 0,1.1789 -1.5287,1.7864 -2.4409,0.9425 -0.9153,-0.8461 -0.2529,-2.2796 1.0145,-2.2796 0.7639,0 1.4264,0.5746 1.4264,1.3371 z m -12.6822,9.0323 c -0.1301,0 -0.4445,0.3201 -0.5423,0.398 -0.5309,0.4178 -1.2617,0.7328 -1.9664,0.7328 -3.2975,0 -3.0656,-4.1987 -1.2407,-6.2 1.0519,-1.1528 2.753,-1.7359 4.2562,-1.2682 0.328,0.1021 0.597,0.2393 0.8034,0.4153 l 2.2297,-0.4646 0.102,0.1165 c -0.1411,0.5936 -1.2554,5.0179 -1.2554,5.5664 0,0.5794 0.2542,0.7308 0.8475,0.7308 l 0.8975,-0.2084 -0.1588,0.6559 c -0.8376,0.3297 -1.3663,0.5817 -2.1532,0.5817 -0.8407,0 -1.5429,-0.3197 -1.8195,-1.0562 z m -17.8688,0.1911 c -0.1261,0 -0.2769,0.1607 -0.4578,0.2883 -0.5303,0.3758 -1.1763,0.6514 -1.8419,0.6514 -3.2913,0 -3.0515,-4.2013 -1.2456,-6.2 1.0605,-1.1741 2.7511,-1.7127 4.2636,-1.2877 0.3181,0.0892 0.6018,0.2358 0.8504,0.4348 l 2.2298,-0.4646 0.1023,0.1165 -0.0873,0.3778 c 1.0173,-0.3968 2.4369,-0.8858 3.3185,-0.0739 0.5964,0.549 0.5352,1.4402 0.3254,2.2073 -0.1607,0.5868 -0.6936,2.3114 -0.6936,2.9208 0,0.8711 0.7149,0.8864 1.4471,0.5029 0.3081,-0.1622 0.6139,-0.3932 0.9144,-0.6917 l 1.2132,-5.2579 2.3372,-0.1018 0.087,0.1018 c -0.1219,0.5263 -1.2257,5.0595 -1.2257,5.5536 0,0.578 0.2455,0.7288 0.8377,0.7288 l 0.8949,-0.2092 -0.1616,0.6568 c -0.8459,0.3311 -1.3618,0.5814 -2.1549,0.5814 -0.9377,0 -1.6997,-0.4165 -1.8944,-1.2878 -0.2486,0 -1.0976,1.3921 -3.1002,1.3921 -1.2626,0 -1.789,-0.8164 -1.6583,-1.986 0.1159,-1.0375 1.2651,-3.7995 0.7112,-4.3534 -0.2826,-0.2821 -0.9635,-0.1477 -1.351,-0.0207 l -1.853,8.1306 c 0,0.4816 0.3518,0.5618 0.7906,0.6514 0.2236,0.0453 0.4147,0.0745 0.5714,0.0845 l -0.1165,0.5071 h -5.2679 l 0.1143,-0.5071 c 0.8487,-0.0698 1.3345,-0.0916 1.5091,-0.8555 z m 1.1064,-4.828 c 0.0672,-0.2925 -0.182,-1.1381 -1.1239,-1.1381 -1.8916,0 -2.6414,4.1803 -1.9817,5.3274 0.3271,0.5678 1.072,0.5973 1.6214,0.2486 0.2386,-0.1513 0.4274,-0.3058 0.5666,-0.4677 z m -69.3108,-0.9147 -1.2852,6.0216 c -0.2302,1.0783 -0.7087,1.9613 -1.442,2.647 -1.5826,1.4805 -3.5076,1.224 -3.5076,0.1672 0,-0.7554 0.9329,-1.3132 1.6657,-0.1026 0.0853,0.1415 0.1587,0.2642 0.2213,0.3657 0.9735,-0.0771 1.4208,-1.7481 1.6456,-2.7992 l 1.3475,-6.2997 H 3.3911 l 0.1513,-0.6562 h 1.4001 c 0.2678,-1.2694 0.5618,-2.223 1.5185,-3.1646 1.3493,-1.3284 3.4787,-1.2918 3.4787,-0.1372 0,0.8954 -1.0636,1.2021 -1.6685,0.0946 -0.0581,-0.1063 -0.1318,-0.2262 -0.2191,-0.358 -1.1302,0.0502 -1.5016,2.3689 -1.7524,3.5652 h 1.8346 l -0.154,0.6562 z m 7.738,1.9715 c 0,2.4392 -1.671,4.7109 -4.3134,4.7109 -4.377,0 -3.1902,-7.5773 1.5562,-7.5773 1.7535,0 2.7572,1.1696 2.7572,2.8664 z m -1.4916,-0.2761 c 0,-1.0789 -0.3126,-2.0685 -1.4195,-2.0685 -2.5305,0 -3.0935,4.7605 -2.2649,5.9993 0.6806,1.017 2.8542,0.8175 3.5178,-2.3097 0.1117,-0.527 0.1666,-1.0667 0.1666,-1.6211 z m 7.8497,-1.4043 c 0,1.6926 -1.7308,1.4709 -1.7308,0.6264 0,-0.3095 0.2038,-0.7608 0.3356,-1.0666 -0.4314,0 -1.0298,0.3518 -1.4193,0.6491 -0.2406,0.1837 -0.4975,0.4297 -0.7682,0.7356 l -1.1738,5.2234 h -1.3592 c 0.1216,-0.5443 1.2351,-5.271 1.2351,-5.7728 0,-0.5391 -0.144,-0.6862 -0.6937,-0.6862 l -0.7954,0.1641 0.1091,-0.4748 c 1.1603,-0.5227 2.8392,-1.0962 2.8392,0.7583 0.2308,0 1.2442,-1.3425 2.2876,-1.3425 0.8022,0 1.1338,0.3968 1.1338,1.186 z m 8.3084,5.2007 c -0.11,0 -0.3047,0.2169 -0.4348,0.3356 -1.7351,1.5894 -4.1389,0.9324 -4.1389,-1.989 0,-2.7335 2.4911,-5.3842 5.1732,-4.5967 0.3127,0.0921 0.5593,0.1942 0.741,0.3112 l 1.3377,-0.3435 0.0867,0.1097 c -0.1349,0.5771 -1.2827,5.2344 -1.2827,5.7299 0,0.7268 0.4573,0.7787 1.1583,0.6662 0.1686,-0.0269 0.301,-0.0593 0.3931,-0.0916 l -0.1094,0.4624 c -0.7668,0.305 -1.9205,0.854 -2.588,0.1862 -0.2038,-0.2035 -0.3161,-0.4646 -0.3362,-0.7804 z m 1.0392,-4.5972 c 0.0799,-0.3385 -0.1534,-0.9428 -0.6662,-1.1582 -1.0063,-0.4227 -2.0137,0.3418 -2.59,1.1811 -0.7523,1.0954 -1.1826,3.2378 -0.6171,4.3484 0.3569,0.699 1.249,0.701 1.9341,0.3529 0.3016,-0.1533 0.6392,-0.4226 1.0148,-0.8059 z m 15.7872,4.4453 -0.1612,0.6568 c -0.8425,0.3316 -1.361,0.5814 -2.153,0.5814 -1.7367,0 -2.0732,-1.2456 -1.6928,-2.6377 0.1698,-0.6228 0.6885,-2.2895 0.6885,-2.9134 0,-0.8751 -0.7288,-0.8499 -1.4394,-0.5519 -0.3059,0.1281 -0.6491,0.3679 -1.0264,0.716 l -1.2087,5.2679 h -2.4038 c 0.1344,-0.582 1.218,-5.0054 1.218,-5.5664 0,-0.5698 -0.2174,-0.7285 -0.7956,-0.7285 -0.3082,0 -0.6282,0.1111 -0.8998,0.2089 l 0.1616,-0.6568 c 0.6758,-0.2735 1.4647,-0.5814 2.1478,-0.5814 0.9995,0 1.6396,0.3487 1.8525,1.2907 0.1876,0 1.2631,-1.3652 3.1444,-1.3652 1.0001,0 1.7181,0.6015 1.7181,1.5216 0,1.5812 -1.3719,4.2628 -0.701,4.813 0.3407,0.2795 1.1483,0.1281 1.5508,-0.055 z m 3.06,1.3425 c -4.1408,0 -4.2017,-4.1797 -2.1974,-6.2323 0.898,-0.9195 2.1969,-1.3898 3.5453,-1.3898 0.9332,0 1.8048,0.165 2.2816,0.6449 1.0392,-0.4184 2.5526,-0.98 3.4625,-0.1355 1.4752,1.37 -1.1327,4.6258 -0.1391,5.6511 0.7747,0.7991 2.2266,-0.6216 2.27,-0.7387 l 0.1318,-0.9842 0.962,-4.2312 2.3142,-0.1018 0.0874,0.1018 -0.957,4.1717 c -0.2245,0.9788 -0.2276,2.1705 1.0936,2.1705 1.5335,0 2.5778,-1.3754 2.4145,-2.9835 -0.0864,-0.8439 -0.6134,-0.5533 -1.1367,-1.5386 -0.4762,-0.898 0.042,-2.0265 1.2235,-2.0265 2.2768,0 1.5381,3.9583 0.1241,5.7654 -0.8963,1.1449 -2.0846,1.8567 -3.59,1.8567 -1.2308,0 -2.261,-0.4317 -2.6204,-1.5931 -0.9329,1.0216 -1.8618,1.5931 -3.1842,1.5931 -1.4065,0 -2.0378,-1.1917 -1.7679,-2.4038 0.1817,-0.8144 0.8229,-2.7051 0.8229,-3.384 0,-0.565 -0.2276,-0.7305 -0.8028,-0.7305 -0.129,0 -0.263,0.0173 -0.3974,0.0507 0.2086,0.6407 -0.003,1.3743 -0.5168,1.8684 -0.9473,0.911 -3.0628,1.2407 -4.3608,1.3773 0.0505,1.0772 0.3325,2.1181 1.6234,2.1181 1.1673,0 1.9066,-0.4519 2.6155,-1.3868 l 0.5347,0.4451 c -0.8717,1.237 -2.312,2.0455 -3.8365,2.0455 z m 1.6436,-5.76 c 0,-2.0557 -2.1875,-1.8097 -2.5583,1.9417 1.3286,-0.1602 2.5583,-0.3699 2.5583,-1.9417 z m 79.6663,1.0491 c 0,2.4392 -1.6705,4.7109 -4.3135,4.7109 -4.3764,0 -3.1901,-7.5773 1.5562,-7.5773 1.7541,0 2.7573,1.1696 2.7573,2.8664 z m -1.4916,-0.2761 c 0,-1.0789 -0.3127,-2.0685 -1.4196,-2.0685 -2.5296,0 -3.0932,4.7605 -2.2646,5.9993 0.6803,1.017 2.8542,0.8175 3.5175,-2.3097 0.1123,-0.527 0.1667,-1.0667 0.1667,-1.6211 z m 4.5232,-1.6954 -1.2855,6.0216 c -0.2302,1.0783 -0.7084,1.9613 -1.4417,2.647 -1.5826,1.4805 -3.5076,1.224 -3.5076,0.1672 0,-0.7554 0.9329,-1.3132 1.6657,-0.1026 0.085,0.1415 0.1593,0.2642 0.2211,0.3657 0.9737,-0.0771 1.4207,-1.7481 1.6458,-2.7992 l 1.3476,-6.2997 h -1.4196 l 0.1513,-0.6562 h 1.4001 c 0.2676,-1.2694 0.5618,-2.223 1.5185,-3.1646 1.3493,-1.3284 3.4781,-1.2918 3.4781,-0.1372 0,0.8954 -1.063,1.2021 -1.6679,0.0946 -0.0581,-0.1063 -0.1318,-0.2262 -0.2191,-0.358 -1.1302,0.0502 -1.5015,2.3689 -1.7524,3.5652 h 1.8343 l -0.1539,0.6562 z m 8.9433,-4.7087 -2.0335,8.7707 c -0.2781,1.2019 -0.4391,1.8723 1.034,1.6906 0.1917,-0.0232 0.3354,-0.0522 0.4323,-0.0839 l -0.1094,0.4618 c -0.7668,0.3053 -2.039,0.8248 -2.6898,0.174 -0.4354,-0.4354 -0.3058,-1.0037 -0.1794,-1.5534 0.2191,-0.9467 1.8601,-7.8154 1.8601,-8.1995 0,-0.7523 -0.5848,-0.6814 -1.1934,-0.7577 l 0.1023,-0.4476 2.7043,-0.1641 z m 2.8231,10.3774 -0.1103,0.4618 c -0.7586,0.3058 -2.0239,0.8033 -2.6274,0.1768 -0.4125,-0.4283 -0.3045,-1.0012 -0.1664,-1.5514 0.1556,-0.6233 0.9394,-3.4829 0.9394,-4.1241 0,-0.6806 -0.3203,-0.7704 -1.1087,-0.6264 -0.1763,0.0317 -0.3106,0.0592 -0.4025,0.0839 l 0.1094,-0.4746 c 1.6271,-0.7344 3.3336,-0.9323 2.7596,1.3476 -0.1355,0.5383 -0.9621,3.5759 -0.9621,4.104 0,0.7382 0.4878,0.781 1.173,0.6863 0.1715,-0.0238 0.3033,-0.0522 0.396,-0.0839 z m 0.5215,-9.3155 c 0,0.9031 -0.9927,1.3907 -1.5936,0.7407 -0.61,-0.6608 -0.1069,-1.673 0.6466,-1.673 0.5533,0 0.947,0.4249 0.947,0.9323 z m 2.4373,3.6468 -1.2853,6.0216 c -0.2301,1.0783 -0.7086,1.9613 -1.4419,2.647 -1.5826,1.4805 -3.5076,1.224 -3.5076,0.1672 0,-0.7554 0.9328,-1.3132 1.6656,-0.1026 0.0853,0.1415 0.1587,0.2642 0.2214,0.3657 0.9734,-0.0771 1.4213,-1.7481 1.6455,-2.7992 l 1.3476,-6.2997 h -1.4196 l 0.1519,-0.6562 H 146.3 c 0.2679,-1.2694 0.5621,-2.223 1.5191,-3.1646 1.349,-1.3284 3.4781,-1.2918 3.4781,-0.1372 0,0.8954 -1.0636,1.2021 -1.6685,0.0946 -0.0581,-0.1063 -0.1315,-0.2262 -0.2185,-0.358 -1.1308,0.0502 -1.5021,2.3689 -1.753,3.5652 h 1.8346 l -0.1539,0.6562 z m 6.9624,0.6216 c 0,1.7022 -1.8334,2.2966 -3.2692,2.613 -0.4623,0.1015 -0.9745,0.1888 -1.5338,0.256 0,1.2441 0.3864,2.3717 1.6832,2.3717 1.0525,0 1.7396,-0.5831 2.389,-1.4474 l 0.4176,0.3065 c -0.7387,1.1143 -1.9403,1.9462 -3.2791,1.9462 -3.4299,0 -3.1102,-4.0637 -1.5265,-6.0534 0.745,-0.9365 1.8201,-1.5091 3.0552,-1.5091 1.1259,0 2.0636,0.4365 2.0636,1.5165 z m -1.3277,-0.1766 c 0,-0.6264 -0.3138,-0.8181 -0.8652,-0.8181 -1.4329,0 -2.3624,1.872 -2.5656,3.3415 1.5803,-0.2191 3.4308,-0.5624 3.4308,-2.5234 z m -38.3559,4.843 c -0.2432,0 -1.0582,1.3351 -3.0801,1.3351 -1.0063,0 -1.6951,-0.6233 -1.6951,-1.5366 0,-1.4539 1.3671,-4.176 0.7358,-4.7512 -0.2474,-0.2248 -1.0936,-0.201 -1.4794,-0.201 h -0.356 -0.5434 c -0.1171,0.5111 -1.0347,4.311 -1.0347,4.7532 0,0.8594 0.8802,0.8008 1.5716,0.6466 0.2684,-0.0599 0.4572,-0.1095 0.5646,-0.1492 l -0.1593,0.6588 c -1.1052,0.4921 -2.8726,0.9879 -3.8659,0.1814 -0.701,-0.5692 -0.5612,-1.3926 -0.3702,-2.2121 l 0.902,-3.8787 h -1.3323 l 0.1741,-0.746 h 1.3572 l 0.527,-2.2077 h 2.3394 l -0.5097,2.2077 h 0.5318 c 1.1276,0.004 1.7887,-0.2382 2.4636,-0.2382 1.7289,0 2.0597,1.2589 1.6707,2.64 -0.1726,0.6117 -0.6964,2.2376 -0.6964,2.8666 0,0.9034 0.8115,0.8626 1.5318,0.4969 0.3229,-0.1638 0.6211,-0.3852 0.8921,-0.6587 l 1.1191,-5.2282 2.3219,-0.1018 0.1017,0.1165 -1.2875,5.9295 c -0.5927,2.7266 -2.2255,4.485 -5.0295,4.485 -1.0454,0 -2.8264,-0.1318 -2.8264,-1.4273 0,-1.0961 1.6401,-1.8737 2.7519,0.2685 0.1184,0.229 0.2086,0.4178 0.2735,0.5618 1.5503,-0.265 2.1728,-2.4695 2.4361,-3.8109 z m -21.7035,-4.3611 c 0.0513,-0.2188 -0.0898,-0.8269 -0.5368,-1.0361 -0.8944,-0.4195 -1.7025,0.3997 -2.1155,1.1685 -0.5177,0.9635 -0.948,3.1405 -0.423,4.0447 0.3164,0.544 1.0446,0.6038 1.5662,0.2736 0.2086,-0.1318 0.4053,-0.296 0.5848,-0.4927 z"
     style="fill:#6e6f70;fill-rule:evenodd"
     id="path4696"
     inkscape:connector-curvature="0" />
  <text
     x="32.271397"
     y="89.983299"
     id="text4700">
    <tspan
       font-size="9.0000"
       id="tspan4698"
       style="font-size:9px;font-family:'Myriad Pro Cond';fill:#6e6f70">www.bosti.com</tspan>
  </text>
  <path
     d="M 164.3399,74.163115 H -5.7387"
     style="fill:#6e6f70;fill-rule:evenodd;stroke:#868789;stroke-width:0.56690001;stroke-linecap:butt;stroke-linejoin:miter;stroke-dasharray:none"
     id="path4702"
     inkscape:connector-curvature="0" />
  <path
     d="M -48.2585,-36.073985 V 105.65832 H 206.8597 V -36.073985 Z"
     style="fill:none;stroke:#1b1918;stroke-width:0.21600001;stroke-linecap:butt;stroke-linejoin:miter;stroke-dasharray:none"
     id="path4704"
     inkscape:connector-curvature="0" />
  <path
     d="m -147.7259,34.472215 c 0.1919,-0.112 0.362,-0.2362 0.51,-0.3722 0.1479,-0.1358 0.28,-0.3039 0.396,-0.504 0.1159,-0.1999 0.2179,-0.438 0.3058,-0.7138 0.0882,-0.2761 0.1681,-0.614 0.2401,-1.0142 l 0.5879,-3.0719 h 2.8562 l -1.116,5.868 h -0.5162 l 1.0321,-5.4 h -1.872 l -0.5159,2.694 c -0.072,0.392 -0.1562,0.7398 -0.252,1.048 -0.0961,0.3081 -0.212,0.5799 -0.3481,0.82 -0.1361,0.2398 -0.2959,0.4459 -0.4799,0.616 -0.184,0.1721 -0.4,0.3181 -0.648,0.438 z m 7.668,-0.5281 c -0.2001,0.2639 -0.428,0.464 -0.684,0.6001 -0.256,0.1357 -0.5162,0.2038 -0.7801,0.2038 -0.2239,0 -0.4099,-0.0301 -0.5581,-0.0899 -0.148,-0.0601 -0.2659,-0.142 -0.3538,-0.246 -0.0882,-0.1041 -0.1502,-0.226 -0.1862,-0.366 -0.036,-0.14 -0.0539,-0.286 -0.0539,-0.4379 0,-0.1041 0.006,-0.2041 0.0179,-0.3002 0.0122,-0.0958 0.026,-0.1959 0.0422,-0.2999 l 0.8158,-4.212 h 0.5281 l -0.8161,4.1641 c -0.0159,0.0799 -0.0278,0.1598 -0.036,0.2398 -0.008,0.0802 -0.0119,0.1562 -0.0119,0.2282 0,0.2318 0.0581,0.426 0.1741,0.5819 0.1159,0.1559 0.3299,0.2339 0.642,0.2339 0.216,0 0.4119,-0.0499 0.5879,-0.15 0.176,-0.1001 0.328,-0.2279 0.4561,-0.3838 0.1278,-0.1562 0.2339,-0.3302 0.3178,-0.5221 0.0842,-0.1919 0.146,-0.3841 0.1862,-0.576 l 0.7319,-3.816 h 0.5159 l -1.1398,5.868 h -0.5162 c 0.0241,-0.1199 0.0502,-0.2401 0.078,-0.36 0.028,-0.1199 0.0501,-0.2401 0.066,-0.36 z m 2.8199,0.8039 c -0.2242,0 -0.4102,-0.0301 -0.5581,-0.0899 -0.148,-0.0601 -0.2659,-0.142 -0.3541,-0.246 -0.0879,-0.1041 -0.1499,-0.226 -0.1859,-0.366 -0.036,-0.14 -0.0539,-0.286 -0.0539,-0.4379 0,-0.1041 0.006,-0.2041 0.0179,-0.3002 0.0119,-0.0958 0.026,-0.1959 0.0419,-0.2999 l 0.8161,-4.212 h 0.5281 l -0.828,4.2361 c -0.0241,0.1199 -0.036,0.2437 -0.036,0.3719 0,0.2239 0.0578,0.4201 0.1738,0.5879 0.1162,0.1681 0.3302,0.252 0.642,0.252 0.2001,0 0.3841,-0.042 0.5522,-0.1259 0.1678,-0.0839 0.3178,-0.1942 0.4499,-0.3299 0.1321,-0.1361 0.242,-0.29 0.3299,-0.4621 0.0882,-0.1721 0.148,-0.3461 0.18,-0.5221 l 0.7682,-4.0079 h 0.5159 c -0.136,0.7279 -0.2761,1.4459 -0.4201,2.154 -0.144,0.7081 -0.284,1.4219 -0.4198,2.1419 -0.0161,0.0961 -0.032,0.1902 -0.0482,0.282 -0.0159,0.0921 -0.0238,0.1899 -0.0238,0.294 0,0.1601 0.0318,0.316 0.0958,0.468 0.0641,0.1522 0.1641,0.2761 0.3002,0.3722 l -0.4802,1.6798 h -0.468 l 0.4201,-1.5358 c -0.112,-0.0803 -0.2021,-0.1942 -0.2701,-0.3422 -0.0678,-0.148 -0.0978,-0.2939 -0.0899,-0.4379 -0.0961,0.136 -0.208,0.2579 -0.3359,0.3659 -0.1281,0.108 -0.2642,0.2001 -0.4082,0.2761 -0.144,0.076 -0.29,0.1341 -0.4379,0.1741 -0.148,0.0399 -0.286,0.0598 -0.4139,0.0598 z m 5.6478,-6.0358 c 0.248,0 0.46,0.036 0.6321,0.108 0.172,0.072 0.3141,0.1678 0.426,0.288 0.114,0.1199 0.1959,0.2539 0.2481,0.4019 0.0518,0.148 0.0779,0.294 0.0779,0.438 0.008,0.2321 -0.0181,0.5261 -0.0779,0.8821 -0.0601,0.3557 -0.1301,0.7379 -0.2101,1.1458 -0.0981,0.504 -0.2001,0.932 -0.3081,1.2841 -0.108,0.352 -0.2398,0.638 -0.398,0.858 -0.1559,0.22 -0.3478,0.3798 -0.576,0.4799 -0.2299,0.1001 -0.5159,0.15 -0.862,0.15 -0.256,0 -0.472,-0.038 -0.6438,-0.114 -0.172,-0.076 -0.3121,-0.174 -0.422,-0.2939 -0.108,-0.1199 -0.186,-0.252 -0.2342,-0.396 -0.0479,-0.144 -0.072,-0.288 -0.072,-0.432 0,-0.1041 0.006,-0.224 0.0182,-0.36 0.0119,-0.1361 0.028,-0.2821 0.0479,-0.438 0.0201,-0.1559 0.0419,-0.3141 0.066,-0.4739 0.0241,-0.1602 0.0519,-0.3121 0.0839,-0.4561 0.114,-0.5281 0.218,-0.982 0.3141,-1.3621 0.0961,-0.3798 0.22,-0.6939 0.3719,-0.9419 0.3141,-0.512 0.8201,-0.7679 1.518,-0.7679 z m -0.0559,0.468 c -0.208,0 -0.4099,0.0419 -0.606,0.1258 -0.1959,0.0842 -0.362,0.248 -0.4981,0.4941 -0.0879,0.1599 -0.178,0.428 -0.2698,0.8079 -0.0922,0.3781 -0.1942,0.8342 -0.3062,1.366 -0.1199,0.646 -0.18,1.1282 -0.18,1.4459 0,0.2302 0.07,0.432 0.2101,0.6041 0.14,0.1701 0.386,0.256 0.7381,0.256 0.2639,0 0.4938,-0.0598 0.69,-0.18 0.1958,-0.118 0.354,-0.3138 0.4739,-0.584 0.0559,-0.144 0.1239,-0.36 0.2041,-0.6519 0.0799,-0.29 0.1559,-0.6021 0.2279,-0.936 0.072,-0.3359 0.1321,-0.6679 0.18,-0.9981 0.0479,-0.33 0.072,-0.612 0.072,-0.8419 0,-0.2721 -0.0819,-0.4901 -0.246,-0.6579 -0.1639,-0.1661 -0.394,-0.25 -0.69,-0.25 z"
     style="fill:#1b1918;fill-rule:evenodd"
     id="path4706"
     inkscape:connector-curvature="0" />
  <text
     x="-60.542706"
     y="425.57452"
     id="text4710">
    <tspan
       font-size="24.0000"
       id="tspan4708"
       style="font-size:24px;font-family:Georgia;fill:#6e6f70">Russia</tspan>
  </text>
  <text
     x="-36.614895"
     y="448.60144"
     id="text4714">
    <tspan
       font-size="24.0000"
       id="tspan4712"
       style="font-size:24px;font-family:Georgia;fill:#6e6f70">office</tspan>
  </text>
  <path
     d="m 79.3006,389.12262 v 85.0399"
     style="fill:none;stroke:#6e6f70;stroke-width:0.56690001;stroke-linecap:butt;stroke-linejoin:miter;stroke-dasharray:none"
     id="path4716"
     inkscape:connector-curvature="0" />
  <text
     x="90.638603"
     y="435.38605"
     id="text4736">
    <tspan
       font-size="9.0000"
       id="tspan4718"
       style="font-size:9px;font-family:'Myriad Pro Cond';fill:#6e6f70">Tel. +7</tspan>
    <tspan
       font-size="9.0000"
       id="tspan4720"
       style="font-size:9px;font-family:'Myriad Pro Cond';fill:#6e6f70">963</tspan>
    <tspan
       font-size="9.0000"
       id="tspan4722"
       style="font-size:9px;font-family:'Myriad Pro Cond';fill:#6e6f70">228</tspan>
    <tspan
       font-size="9.0000"
       id="tspan4724"
       style="font-size:9px;font-family:'Myriad Pro Cond';fill:#6e6f70" />
    <tspan
       font-size="9.0000"
       id="tspan4726"
       style="font-size:9px;font-family:'Myriad Pro Cond';fill:#6e6f70">43 15Fax +7</tspan>
    <tspan
       font-size="9.0000"
       id="tspan4728"
       style="font-size:9px;font-family:'Myriad Pro Cond';fill:#6e6f70">495</tspan>
    <tspan
       font-size="9.0000"
       id="tspan4730"
       style="font-size:9px;font-family:'Myriad Pro Cond';fill:#6e6f70" />
    <tspan
       font-size="9.0000"
       id="tspan4732"
       style="font-size:9px;font-family:'Myriad Pro Cond';fill:#6e6f70">228 43 12</tspan>
    <tspan
       font-size="9.0000"
       id="tspan4734"
       style="font-size:9px;font-family:'Myriad Pro Cond';fill:#6e6f70">life@bosti.com.ru</tspan>
  </text>
  <text
     x="90.638603"
     y="458.4408"
     id="text4754">
    <tspan
       font-size="9.0000"
       id="tspan4738"
       style="font-size:9px;font-family:'Myriad Pro Cond';fill:#6e6f70">BOSTI trading LT</tspan>
    <tspan
       font-size="9.0000"
       id="tspan4740"
       style="font-size:9px;font-family:'Myriad Pro Cond';fill:#6e6f70">D. 21, Bersenskaya</tspan>
    <tspan
       font-size="9.0000"
       id="tspan4742"
       style="font-size:9px;font-family:'Myriad Pro Cond';fill:#6e6f70" />
    <tspan
       font-size="9.0000"
       id="tspan4744"
       style="font-size:9px;font-family:'Myriad Pro Cond';fill:#6e6f70">Embankment, 12</tspan>
    <tspan
       font-size="9.0000"
       id="tspan4746"
       style="font-size:9px;font-family:'Myriad Pro Cond';fill:#6e6f70">с</tspan>
    <tspan
       font-size="9.0000"
       id="tspan4748"
       style="font-size:9px;font-family:'Myriad Pro Cond';fill:#6e6f70">1 Moscow,</tspan>
    <tspan
       font-size="9.0000"
       id="tspan4750"
       style="font-size:9px;font-family:'Myriad Pro Cond';fill:#6e6f70" />
    <tspan
       font-size="9.0000"
       id="tspan4752"
       style="font-size:9px;font-family:'Myriad Pro Cond';fill:#6e6f70">Russia</tspan>
  </text>
  <text
     x="90.638603"
     y="255.18362"
     id="text4758">
    <tspan
       font-size="9.0000"
       id="tspan4756"
       style="font-size:9px;font-family:'Myriad Pro Cond';fill:#6e6f70">Tel. +7 926 269 1373Fax +996 551 717 713</tspan>
  </text>
  <text
     x="90.7015"
     y="279.96271"
     id="text4762">
    <tspan
       font-size="9.0000"
       id="tspan4760"
       style="font-size:9px;font-family:'Myriad Pro Cond';fill:#6e6f70">atabek@bosti.com.kg</tspan>
  </text>
  <text
     x="-72.107201"
     y="255.80753"
     id="text4766">
    <tspan
       font-size="24.0000"
       id="tspan4764"
       style="font-size:24px;font-family:Georgia;fill:#6e6f70">Atabek</tspan>
  </text>
  <text
     x="-120.50929"
     y="278.78662"
     id="text4770">
    <tspan
       font-size="24.0000"
       id="tspan4768"
       style="font-size:24px;font-family:Georgia;fill:#6e6f70">Anarbaev</tspan>
  </text>
  <path
     d="m 79.3006,219.04392 v 85.0399"
     style="fill:none;stroke:#6e6f70;stroke-width:0.56690001;stroke-linecap:butt;stroke-linejoin:miter;stroke-dasharray:none"
     id="path4772"
     inkscape:connector-curvature="0" />
  <text
     x="-113.1347"
     y="298.10532"
     id="text4780">
    <tspan
       font-size="9.0000"
       id="tspan4774"
       style="font-size:9px;font-family:'Myriad Pro Cond';fill:#6e6f70">Business development director fo</tspan>
    <tspan
       font-size="9.0000"
       id="tspan4776"
       style="font-size:9px;font-family:'Myriad Pro Cond';fill:#6e6f70">r</tspan>
    <tspan
       font-size="9.0000"
       id="tspan4778"
       style="font-size:9px;font-family:'Myriad Pro Cond';fill:#6e6f70">Central Asia and Caucasus</tspan>
  </text>
  <path
     d="m -48.2585,190.69772 v 141.7323 h 255.1182 v -141.7323 z"
     style="fill:none;stroke:#1b1918;stroke-width:0.21600001;stroke-linecap:butt;stroke-linejoin:miter;stroke-dasharray:none"
     id="path4782"
     inkscape:connector-curvature="0" />
  <path
     d="m -48.2585,360.77642 v 141.7323 h 255.1182 v -141.7323 z"
     style="fill:none;stroke:#1b1918;stroke-width:0.21600001;stroke-linecap:butt;stroke-linejoin:miter;stroke-dasharray:none"
     id="path4784"
     inkscape:connector-curvature="0" />
  <path
     d="m -145.6501,255.93592 h 0.6001 c 0.112,0 0.2299,-0.0221 0.3541,-0.066 0.1238,-0.044 0.2398,-0.116 0.3478,-0.22 0.108,-0.104 0.1961,-0.2401 0.2642,-0.4059 0.068,-0.1681 0.102,-0.3739 0.102,-0.6199 0,-0.3042 -0.0901,-0.5202 -0.2701,-0.652 -0.18,-0.1301 -0.4099,-0.1962 -0.69,-0.1962 -0.3041,0 -0.5601,0.078 -0.7679,0.2342 -0.2081,0.1559 -0.36,0.4019 -0.4561,0.7378 l -0.4921,-0.108 c 0.1202,-0.4561 0.3441,-0.792 0.6721,-1.008 0.328,-0.216 0.6999,-0.324 1.116,-0.324 0.184,0 0.362,0.0202 0.5341,0.0601 0.172,0.04 0.324,0.106 0.4558,0.1979 0.1321,0.0921 0.2361,0.214 0.3121,0.364 0.0759,0.1522 0.1139,0.3401 0.1139,0.564 0,0.1282 -0.0159,0.2781 -0.0479,0.4502 -0.032,0.1698 -0.0839,0.3399 -0.1559,0.508 -0.072,0.1678 -0.1681,0.32 -0.288,0.4558 -0.1202,0.136 -0.2682,0.2321 -0.4442,0.286 v 0.0122 c 0.1602,0.0499 0.2761,0.146 0.3481,0.29 0.072,0.144 0.108,0.32 0.108,0.5278 0,0.432 -0.0601,0.7959 -0.18,1.0879 -0.1199,0.2923 -0.2761,0.5281 -0.468,0.7101 -0.1919,0.18 -0.4059,0.3081 -0.642,0.3841 -0.2359,0.0759 -0.47,0.1139 -0.7019,0.1139 -0.184,0 -0.36,-0.0201 -0.5281,-0.0601 -0.1681,-0.0399 -0.318,-0.108 -0.4501,-0.2038 -0.1318,-0.0961 -0.2379,-0.218 -0.3178,-0.3659 -0.0802,-0.1483 -0.1202,-0.3303 -0.1202,-0.5463 0,-0.032 0,-0.0618 0,-0.0898 0,-0.0281 0.004,-0.0621 0.0122,-0.1021 l 0.504,-0.072 c 0,0.0321 -0.002,0.0621 -0.006,0.0902 -0.004,0.0278 -0.006,0.0578 -0.006,0.0898 0,0.2801 0.0961,0.4819 0.288,0.6061 0.1922,0.1239 0.4201,0.1859 0.684,0.1859 0.1681,0 0.3362,-0.03 0.504,-0.0898 0.1681,-0.0601 0.3181,-0.1562 0.4502,-0.288 0.1318,-0.1321 0.2378,-0.3062 0.318,-0.5222 0.0799,-0.216 0.1199,-0.4838 0.1199,-0.8039 0,-0.28 -0.066,-0.4739 -0.1981,-0.5819 -0.1318,-0.108 -0.3019,-0.1622 -0.51,-0.1622 h -0.5638 z m 4.8722,-2.1481 c -0.5522,0 -0.9281,0.2682 -1.1282,0.8062 -0.04,0.0961 -0.102,0.292 -0.1859,0.5899 -0.0839,0.2959 -0.1659,0.6401 -0.2461,1.0341 -0.072,0.36 -0.1318,0.7061 -0.18,1.0341 -0.0479,0.3279 -0.072,0.5978 -0.072,0.8058 0,0.264 0.0802,0.4641 0.2401,0.5962 0.1599,0.1318 0.364,0.1978 0.612,0.1978 0.2081,0 0.398,-0.0459 0.5701,-0.138 0.172,-0.0919 0.32,-0.2081 0.4439,-0.3501 0.1241,-0.1397 0.2239,-0.2979 0.2999,-0.4739 0.0762,-0.1761 0.1261,-0.3498 0.1502,-0.5179 l 0.432,-2.2 c 0.0318,-0.1701 0.042,-0.3379 0.0298,-0.506 -0.0119,-0.1681 -0.0519,-0.3161 -0.1199,-0.4439 -0.0681,-0.1301 -0.1721,-0.2341 -0.3121,-0.3141 -0.1398,-0.0799 -0.3178,-0.1202 -0.5338,-0.1202 z m 0.1318,5.4601 c 0.0162,-0.1119 0.038,-0.2199 0.0661,-0.324 0.028,-0.104 0.0499,-0.212 0.066,-0.324 -0.008,0 -0.0119,-0.002 -0.0119,-0.006 0,-0.004 -0.004,-0.006 -0.0122,-0.006 -0.184,0.2319 -0.3838,0.4119 -0.5998,0.54 -0.216,0.1279 -0.4921,0.1919 -0.828,0.1919 -0.36,0 -0.644,-0.0941 -0.8521,-0.282 -0.2081,-0.188 -0.3121,-0.466 -0.3121,-0.834 0,-0.2401 0.0261,-0.5519 0.078,-0.936 0.0521,-0.3841 0.1182,-0.7718 0.1981,-1.1639 0.0961,-0.464 0.1959,-0.8719 0.2999,-1.224 0.104,-0.352 0.2322,-0.646 0.3841,-0.8821 0.1519,-0.2359 0.3359,-0.4119 0.5519,-0.5278 0.216,-0.1162 0.476,-0.1741 0.7801,-0.1741 0.2959,0 0.5479,0.0598 0.756,0.18 0.2081,0.1199 0.356,0.2758 0.4439,0.468 h 0.0241 c 0.0159,-0.0881 0.034,-0.18 0.0539,-0.2761 0.0201,-0.0961 0.038,-0.1879 0.0541,-0.2761 h 0.504 c -0.1919,0.9842 -0.3821,1.9622 -0.57,2.9342 -0.188,0.972 -0.3739,1.946 -0.5579,2.9219 z m 3.2961,-0.3841 c 0.262,0 0.4902,-0.0657 0.6801,-0.1978 0.1919,-0.1321 0.3441,-0.3201 0.4541,-0.5681 0.0479,-0.104 0.108,-0.2781 0.18,-0.5199 0.072,-0.244 0.144,-0.5122 0.216,-0.8022 0.07,-0.2919 0.1318,-0.5918 0.184,-0.898 0.0518,-0.3078 0.0819,-0.578 0.0898,-0.8079 0,-0.3038 -0.0859,-0.5598 -0.256,-0.7659 -0.172,-0.208 -0.428,-0.3121 -0.7718,-0.3121 -0.182,0 -0.3742,0.0479 -0.574,0.144 -0.1982,0.0961 -0.3581,0.2781 -0.476,0.55 -0.0802,0.176 -0.1661,0.4101 -0.2582,0.7001 -0.0919,0.292 -0.186,0.688 -0.2798,1.192 -0.0641,0.3101 -0.108,0.5839 -0.1321,0.82 -0.0241,0.2359 -0.036,0.436 -0.036,0.6038 0,0.2242 0.078,0.4241 0.2319,0.5981 0.1562,0.1761 0.4062,0.2639 0.748,0.2639 z m 2.668,-6.2858 c 0,0.1361 -0.008,0.2959 -0.0238,0.4819 -0.0162,0.184 -0.0462,0.4241 -0.0901,0.72 -0.044,0.2959 -0.1041,0.6661 -0.18,1.1061 -0.076,0.4399 -0.1741,0.9779 -0.294,1.6101 -0.0882,0.464 -0.1859,0.8679 -0.2939,1.2078 -0.108,0.3402 -0.2342,0.6262 -0.3782,0.858 -0.1599,0.2659 -0.354,0.4601 -0.5819,0.584 -0.2279,0.1241 -0.514,0.1859 -0.8581,0.1859 -0.2798,0 -0.5119,-0.0379 -0.6959,-0.1139 -0.184,-0.076 -0.3319,-0.1741 -0.4439,-0.294 -0.112,-0.1199 -0.1922,-0.254 -0.2401,-0.4019 -0.0479,-0.148 -0.072,-0.294 -0.072,-0.438 0,-0.2001 0.0201,-0.468 0.0601,-0.8042 0.04,-0.3359 0.0918,-0.6519 0.1559,-0.9479 0.0879,-0.432 0.18,-0.8098 0.2761,-1.1338 0.0958,-0.324 0.1959,-0.578 0.2999,-0.7623 0.1681,-0.3038 0.364,-0.5317 0.5879,-0.684 0.2242,-0.1519 0.5241,-0.2279 0.9,-0.2279 0.0799,0 0.176,0.01 0.288,0.0301 0.112,0.0201 0.2239,0.0561 0.3362,0.108 0.112,0.0519 0.216,0.1219 0.3118,0.21 0.0961,0.0879 0.1721,0.2038 0.2282,0.3478 0.0159,0 0.0278,-0.004 0.036,-0.0119 0.04,-0.2318 0.074,-0.43 0.1018,-0.5938 0.028,-0.1642 0.0482,-0.3042 0.0601,-0.4201 0.0119,-0.116 0.0201,-0.216 0.0241,-0.2999 0.004,-0.0842 0.006,-0.1661 0.006,-0.2461 0,-0.208 -0.0162,-0.4019 -0.0479,-0.5819 -0.032,-0.18 -0.0941,-0.3382 -0.1862,-0.474 -0.0919,-0.136 -0.22,-0.2421 -0.3838,-0.318 -0.1642,-0.076 -0.3782,-0.114 -0.6421,-0.114 -0.104,0 -0.218,0.006 -0.3421,0.0179 -0.1239,0.0119 -0.254,0.0261 -0.3898,0.0419 l -0.0482,-0.432 c 0.1681,-0.0238 0.3161,-0.0399 0.4442,-0.0479 0.1278,-0.008 0.256,-0.0119 0.3838,-0.0119 0.3362,0 0.614,0.0479 0.834,0.144 0.2202,0.0958 0.392,0.2279 0.5162,0.396 0.1238,0.1678 0.212,0.366 0.2639,0.5899 0.0518,0.2239 0.0779,0.464 0.0779,0.72 z m 2.6161,6.6699 0.54,-2.7839 h -2.2079 l -0.5281,2.7839 h -0.5278 l 1.1279,-5.868 h 0.5281 l -0.504,2.6161 h 2.2079 l 0.504,-2.6161 h 0.5281 l -1.1282,5.868 z m 4.4402,-0.72 c -0.2001,0.2639 -0.428,0.4641 -0.684,0.6001 -0.256,0.1358 -0.5162,0.2038 -0.7801,0.2038 -0.2239,0 -0.4099,-0.03 -0.5581,-0.0898 -0.148,-0.0601 -0.2659,-0.142 -0.3538,-0.2461 -0.0882,-0.104 -0.1502,-0.2259 -0.1862,-0.3659 -0.036,-0.1401 -0.0539,-0.286 -0.0539,-0.438 0,-0.104 0.006,-0.2041 0.0179,-0.3002 0.0121,-0.0958 0.026,-0.1958 0.0422,-0.2999 l 0.8158,-4.212 h 0.5281 l -0.8161,4.1641 c -0.0159,0.08 -0.0278,0.1599 -0.036,0.2398 -0.008,0.0803 -0.0119,0.1562 -0.0119,0.2282 0,0.2319 0.0581,0.4261 0.174,0.582 0.116,0.1559 0.33,0.2338 0.6421,0.2338 0.216,0 0.4119,-0.0499 0.5879,-0.1499 0.176,-0.1001 0.328,-0.2279 0.4561,-0.3838 0.1278,-0.1562 0.2339,-0.3303 0.3178,-0.5222 0.0841,-0.1919 0.1459,-0.3841 0.1862,-0.576 l 0.7319,-3.816 h 0.5159 l -1.1398,5.868 h -0.5162 c 0.0241,-0.1199 0.0502,-0.2401 0.078,-0.36 0.028,-0.1199 0.0501,-0.2401 0.066,-0.36 z m 2.8199,0.8039 c -0.2242,0 -0.4102,-0.03 -0.5581,-0.0898 -0.148,-0.0601 -0.2659,-0.142 -0.3541,-0.2461 -0.0879,-0.104 -0.1499,-0.2259 -0.1859,-0.3659 -0.036,-0.1401 -0.0539,-0.286 -0.0539,-0.438 0,-0.104 0.006,-0.2041 0.0179,-0.3002 0.0119,-0.0958 0.026,-0.1958 0.0419,-0.2999 l 0.8161,-4.212 h 0.5281 l -0.828,4.2361 c -0.0241,0.1199 -0.036,0.2438 -0.036,0.3719 0,0.224 0.0578,0.4201 0.1738,0.5879 0.1162,0.1681 0.3302,0.252 0.642,0.252 0.2001,0 0.3841,-0.0419 0.5522,-0.1258 0.1678,-0.0839 0.3178,-0.1942 0.4499,-0.33 0.1321,-0.136 0.242,-0.29 0.3299,-0.462 0.0882,-0.1721 0.148,-0.3461 0.18,-0.5222 l 0.7682,-4.0079 h 0.5159 c -0.1361,0.728 -0.2761,1.446 -0.4201,2.1541 -0.144,0.7081 -0.284,1.4218 -0.4198,2.1418 -0.0162,0.0961 -0.032,0.1902 -0.0482,0.2821 -0.0159,0.0921 -0.0238,0.1899 -0.0238,0.2939 0,0.1602 0.0317,0.3161 0.0958,0.468 0.0641,0.1523 0.1641,0.2761 0.3002,0.3722 l -0.4802,1.6798 h -0.468 l 0.4201,-1.5358 c -0.112,-0.0802 -0.2021,-0.1941 -0.2701,-0.3421 -0.0678,-0.148 -0.0978,-0.294 -0.0899,-0.438 -0.0961,0.1361 -0.2081,0.258 -0.3359,0.366 -0.1281,0.108 -0.2642,0.2001 -0.4082,0.2761 -0.144,0.0759 -0.29,0.1341 -0.4379,0.174 -0.148,0.04 -0.2861,0.0598 -0.4139,0.0598 z m 5.616,-5.544 c -0.5522,0 -0.9281,0.2682 -1.1282,0.8062 -0.04,0.0961 -0.102,0.292 -0.1859,0.5899 -0.0839,0.2959 -0.1659,0.6401 -0.2461,1.0341 -0.072,0.36 -0.1318,0.7061 -0.18,1.0341 -0.0479,0.3279 -0.072,0.5978 -0.072,0.8058 0,0.264 0.0802,0.4641 0.2401,0.5962 0.1599,0.1318 0.364,0.1978 0.612,0.1978 0.2081,0 0.398,-0.0459 0.5701,-0.138 0.172,-0.0919 0.32,-0.2081 0.4439,-0.3501 0.1241,-0.1397 0.2239,-0.2979 0.2999,-0.4739 0.0762,-0.1761 0.1261,-0.3498 0.1502,-0.5179 l 0.432,-2.2 c 0.0317,-0.1701 0.042,-0.3379 0.0298,-0.506 -0.0119,-0.1681 -0.0519,-0.3161 -0.1199,-0.4439 -0.0681,-0.1301 -0.1721,-0.2341 -0.3121,-0.3141 -0.1398,-0.0799 -0.3178,-0.1202 -0.5338,-0.1202 z m 0.1318,5.4601 c 0.0162,-0.1119 0.038,-0.2199 0.0661,-0.324 0.028,-0.104 0.0498,-0.212 0.066,-0.324 -0.008,0 -0.0119,-0.002 -0.0119,-0.006 0,-0.004 -0.004,-0.006 -0.0122,-0.006 -0.184,0.2319 -0.3838,0.4119 -0.5998,0.54 -0.216,0.1279 -0.4921,0.1919 -0.828,0.1919 -0.36,0 -0.644,-0.0941 -0.8521,-0.282 -0.2081,-0.188 -0.3121,-0.466 -0.3121,-0.834 0,-0.2401 0.0261,-0.5519 0.078,-0.936 0.0521,-0.3841 0.1182,-0.7718 0.1981,-1.1639 0.0961,-0.464 0.1959,-0.8719 0.2999,-1.224 0.104,-0.352 0.2322,-0.646 0.3841,-0.8821 0.1519,-0.2359 0.3359,-0.4119 0.5519,-0.5278 0.216,-0.1162 0.4759,-0.1741 0.7801,-0.1741 0.2959,0 0.5479,0.0598 0.756,0.18 0.2081,0.1199 0.356,0.2758 0.4439,0.468 h 0.0241 c 0.0159,-0.0881 0.034,-0.18 0.0539,-0.2761 0.0201,-0.0961 0.0379,-0.1879 0.0541,-0.2761 h 0.504 c -0.1919,0.9842 -0.3821,1.9622 -0.57,2.9342 -0.188,0.972 -0.3739,1.946 -0.5579,2.9219 z m -25.3199,12.3477 c -0.2001,0.264 -0.428,0.4641 -0.684,0.6001 -0.256,0.1358 -0.5162,0.2039 -0.7801,0.2039 -0.2239,0 -0.4099,-0.0301 -0.5581,-0.0899 -0.148,-0.0601 -0.2659,-0.142 -0.3538,-0.2461 -0.0882,-0.104 -0.1502,-0.2259 -0.1862,-0.3659 -0.036,-0.14 -0.0539,-0.286 -0.0539,-0.438 0,-0.104 0.006,-0.2041 0.0179,-0.3001 0.0122,-0.0959 0.026,-0.1959 0.0422,-0.3 l 0.8158,-4.212 h 0.5281 l -0.8161,4.1641 c -0.0159,0.08 -0.0278,0.1599 -0.036,0.2399 -0.008,0.0802 -0.0119,0.1561 -0.0119,0.2281 0,0.2319 0.0581,0.4261 0.1741,0.582 0.1159,0.1559 0.3299,0.2339 0.642,0.2339 0.216,0 0.4119,-0.0499 0.5879,-0.15 0.176,-0.1001 0.328,-0.2279 0.4561,-0.3838 0.1278,-0.1562 0.2339,-0.3302 0.3178,-0.5222 0.0842,-0.1919 0.146,-0.384 0.1862,-0.576 l 0.7319,-3.816 h 0.5159 l -1.1398,5.868 h -0.5162 c 0.0241,-0.1199 0.0502,-0.24 0.078,-0.36 0.028,-0.1199 0.0501,-0.24 0.066,-0.36 z m 6.3357,-3.948 c -0.1678,0.2562 -0.3399,0.5161 -0.5159,0.78 -0.176,0.264 -0.3481,0.5281 -0.5159,0.792 -0.0241,0.04 -0.0941,0.146 -0.21,0.3181 -0.116,0.1721 -0.2421,0.358 -0.3782,0.5579 -0.136,0.2001 -0.2639,0.386 -0.3838,0.5581 -0.1202,0.1721 -0.1922,0.2781 -0.216,0.318 h -0.3481 c -0.072,-0.248 -0.144,-0.496 -0.216,-0.7441 -0.072,-0.248 -0.14,-0.496 -0.2041,-0.744 -0.0879,-0.3039 -0.1678,-0.6038 -0.2398,-0.9 -0.072,-0.296 -0.1522,-0.5959 -0.2401,-0.9 h -0.0119 c -0.1522,0.7761 -0.3022,1.548 -0.4501,2.3161 -0.148,0.7679 -0.294,1.5398 -0.438,2.3159 h -0.5159 l 1.1279,-5.868 h 0.4799 l 0.612,2.376 c 0.0641,0.2401 0.1262,0.478 0.186,0.7141 0.0601,0.2358 0.1221,0.4739 0.1862,0.714 h 0.0119 l 1.2121,-1.8481 1.296,-1.956 h 0.5278 l -1.1279,5.868 h -0.5159 c 0.1519,-0.7761 0.3019,-1.5519 0.4499,-2.328 0.1479,-0.7759 0.3019,-1.556 0.462,-2.34 z m 3.3761,-1.296 c 0.4958,0 0.858,0.1102 1.0899,0.3302 0.2299,0.22 0.3461,0.5099 0.3461,0.8699 0,0.368 -0.0621,0.69 -0.1862,0.9661 -0.1219,0.2758 -0.29,0.504 -0.502,0.684 -0.2098,0.18 -0.4558,0.3138 -0.7339,0.4019 -0.2801,0.0879 -0.5701,0.1319 -0.8739,0.1319 -0.0882,0 -0.2061,-0.006 -0.3581,-0.0179 -0.1519,-0.0119 -0.32,-0.038 -0.502,-0.078 -0.0399,0.1999 -0.0779,0.406 -0.1139,0.618 -0.036,0.212 -0.0542,0.4019 -0.0542,0.57 0,0.1358 0.0122,0.2699 0.036,0.402 0.0241,0.1321 0.07,0.25 0.1381,0.354 0.068,0.1041 0.1621,0.186 0.282,0.2461 0.1199,0.0598 0.2721,0.0898 0.4561,0.0898 0.3359,0 0.614,-0.0941 0.834,-0.282 0.2199,-0.1879 0.3659,-0.4459 0.4379,-0.7739 l 0.5159,0.0959 c -0.1119,0.456 -0.32,0.8081 -0.6239,1.0561 -0.3041,0.2481 -0.7081,0.3719 -1.2121,0.3719 -0.2639,0 -0.4819,-0.0379 -0.6539,-0.1139 -0.1721,-0.076 -0.3121,-0.182 -0.4201,-0.3181 -0.108,-0.136 -0.184,-0.2939 -0.2279,-0.4739 -0.044,-0.18 -0.0661,-0.3742 -0.0661,-0.582 0,-0.216 0.0182,-0.4481 0.0542,-0.6961 0.036,-0.2478 0.074,-0.4919 0.1139,-0.732 0.072,-0.392 0.1539,-0.7758 0.25,-1.152 0.0961,-0.3758 0.224,-0.71 0.3841,-1.002 0.1599,-0.292 0.366,-0.5258 0.622,-0.7019 0.2539,-0.176 0.5779,-0.2641 0.968,-0.2641 z m -0.04,0.468 c -0.4082,0 -0.7361,0.1842 -0.9842,0.5521 -0.248,0.368 -0.4558,0.9681 -0.6239,1.8 0.1199,0.0321 0.2639,0.0559 0.432,0.072 0.1681,0.0159 0.3081,0.0239 0.4201,0.0239 0.216,0 0.4258,-0.0298 0.6299,-0.0899 0.2041,-0.0601 0.388,-0.1559 0.5519,-0.288 0.1641,-0.1321 0.2962,-0.3019 0.396,-0.51 0.1,-0.208 0.1502,-0.4561 0.1502,-0.7441 0,-0.24 -0.0822,-0.4359 -0.246,-0.5879 -0.1642,-0.1519 -0.4062,-0.2281 -0.726,-0.2281 z m 4.3078,5.496 0.54,-2.7839 h -2.2079 l -0.5281,2.7839 h -0.5278 l 1.1279,-5.868 h 0.5281 l -0.504,2.6161 h 2.2079 l 0.504,-2.6161 h 0.5281 l -1.1282,5.868 z m 4.32,0 0.54,-2.7839 h -2.2079 l -0.5281,2.7839 h -0.5278 l 1.1279,-5.868 h 0.5281 l -0.504,2.6161 h 2.2079 l 0.504,-2.6161 h 0.5281 l -1.1282,5.868 z m 4.1882,-5.46 c -0.5522,0 -0.928,0.2681 -1.1282,0.8061 -0.0399,0.0961 -0.102,0.292 -0.1859,0.5899 -0.0839,0.296 -0.1659,0.6401 -0.2461,1.0341 -0.072,0.36 -0.1318,0.7061 -0.18,1.0341 -0.0479,0.3279 -0.072,0.5978 -0.072,0.8059 0,0.2639 0.0802,0.464 0.2401,0.5961 0.1599,0.1318 0.364,0.1978 0.612,0.1978 0.2081,0 0.398,-0.0459 0.5701,-0.138 0.172,-0.0918 0.32,-0.2081 0.4439,-0.3501 0.1241,-0.1397 0.2239,-0.2979 0.2999,-0.4739 0.0762,-0.1761 0.1261,-0.3498 0.1502,-0.5179 l 0.432,-2.2 c 0.0318,-0.1701 0.042,-0.3379 0.0298,-0.506 -0.0119,-0.1681 -0.0519,-0.316 -0.1199,-0.4439 -0.0681,-0.1301 -0.1721,-0.2341 -0.3121,-0.3141 -0.1398,-0.0799 -0.3178,-0.1201 -0.5338,-0.1201 z m 0.1318,5.46 c 0.0162,-0.1119 0.038,-0.2199 0.0661,-0.324 0.028,-0.104 0.0499,-0.212 0.066,-0.324 -0.008,0 -0.0119,-0.002 -0.0119,-0.006 0,-0.004 -0.004,-0.006 -0.0122,-0.006 -0.1839,0.2319 -0.3838,0.4119 -0.5998,0.54 -0.216,0.1279 -0.4921,0.1919 -0.828,0.1919 -0.36,0 -0.644,-0.0941 -0.8521,-0.282 -0.208,-0.1879 -0.3121,-0.466 -0.3121,-0.834 0,-0.24 0.0261,-0.5519 0.078,-0.936 0.0521,-0.384 0.1182,-0.7718 0.1981,-1.1639 0.0961,-0.464 0.1959,-0.8719 0.2999,-1.224 0.1041,-0.352 0.2322,-0.646 0.3841,-0.8821 0.152,-0.2358 0.3359,-0.4119 0.5519,-0.5278 0.216,-0.1162 0.476,-0.1741 0.7801,-0.1741 0.296,0 0.548,0.0599 0.756,0.18 0.2081,0.1199 0.3561,0.2759 0.4439,0.468 h 0.0241 c 0.0159,-0.0881 0.034,-0.18 0.0539,-0.2761 0.0201,-0.096 0.038,-0.1879 0.0541,-0.276 h 0.504 c -0.1919,0.9841 -0.3821,1.9621 -0.57,2.9341 -0.188,0.972 -0.3739,1.946 -0.5579,2.9219 z m 5.9162,-5.868 -1.1279,5.868 h -0.5162 l 0.5281,-2.7119 h -0.936 c -0.248,0 -0.472,0.0599 -0.6721,0.18 -0.1998,0.1199 -0.3798,0.3719 -0.54,0.756 l -0.6599,1.7759 h -0.504 l 0.6959,-1.8518 c 0.0882,-0.2401 0.2001,-0.4561 0.3362,-0.648 0.1358,-0.1922 0.32,-0.328 0.5519,-0.4102 -0.472,-0.214 -0.7081,-0.582 -0.7081,-1.1018 0,-0.5502 0.1741,-0.9981 0.5222,-1.3402 0.3478,-0.3439 0.862,-0.516 1.542,-0.516 z m -1.5599,0.468 c -0.464,0 -0.828,0.116 -1.0922,0.3501 -0.2639,0.2339 -0.396,0.5641 -0.396,0.9919 0,0.5862 0.3762,0.8781 1.1282,0.8781 h 0.9 l 0.432,-2.2201 z"
     style="fill:#1b1918;fill-rule:evenodd"
     id="path4786"
     inkscape:connector-curvature="0" />
  <path
     d="m -145.6501,426.01472 h 0.6001 c 0.112,0 0.2299,-0.0221 0.3541,-0.0661 0.1238,-0.0439 0.2398,-0.1159 0.3478,-0.2199 0.108,-0.1041 0.1961,-0.2401 0.2642,-0.406 0.068,-0.1681 0.102,-0.3739 0.102,-0.6199 0,-0.3042 -0.0901,-0.5202 -0.2701,-0.652 -0.18,-0.1301 -0.4099,-0.1961 -0.69,-0.1961 -0.3041,0 -0.5601,0.0779 -0.7679,0.2341 -0.2081,0.1559 -0.36,0.402 -0.4561,0.7379 l -0.4921,-0.108 c 0.1202,-0.4561 0.3441,-0.792 0.6721,-1.008 0.328,-0.216 0.6999,-0.324 1.116,-0.324 0.184,0 0.362,0.0201 0.5341,0.0601 0.172,0.0399 0.324,0.106 0.4558,0.1978 0.1321,0.0922 0.2361,0.214 0.3121,0.364 0.0759,0.1522 0.1139,0.3402 0.1139,0.5641 0,0.1281 -0.0159,0.2781 -0.0479,0.4501 -0.032,0.1698 -0.0839,0.3399 -0.1559,0.508 -0.072,0.1678 -0.1681,0.32 -0.288,0.4558 -0.1202,0.1361 -0.2682,0.2322 -0.4442,0.286 v 0.0122 c 0.1602,0.0499 0.2761,0.146 0.3481,0.29 0.072,0.144 0.108,0.32 0.108,0.5278 0,0.432 -0.0601,0.796 -0.18,1.0879 -0.1199,0.2923 -0.2761,0.5281 -0.468,0.7101 -0.1919,0.18 -0.4059,0.3082 -0.642,0.3841 -0.2359,0.076 -0.47,0.114 -0.7019,0.114 -0.184,0 -0.36,-0.0202 -0.5281,-0.0601 -0.1681,-0.04 -0.318,-0.108 -0.4501,-0.2038 -0.1318,-0.0961 -0.2379,-0.218 -0.3178,-0.366 -0.0802,-0.1482 -0.1202,-0.3302 -0.1202,-0.5462 0,-0.0321 0,-0.0618 0,-0.0899 0,-0.028 0.004,-0.0621 0.0122,-0.102 l 0.504,-0.072 c 0,0.032 -0.002,0.0621 -0.006,0.0901 -0.004,0.0278 -0.006,0.0578 -0.006,0.0899 0,0.28 0.0961,0.4819 0.288,0.606 0.1922,0.1239 0.4201,0.186 0.684,0.186 0.1681,0 0.3362,-0.0301 0.504,-0.0899 0.1681,-0.0601 0.3181,-0.1562 0.4502,-0.288 0.1318,-0.1321 0.2378,-0.3061 0.318,-0.5221 0.0799,-0.216 0.1199,-0.4839 0.1199,-0.8039 0,-0.2801 -0.066,-0.474 -0.1981,-0.582 -0.1318,-0.108 -0.3019,-0.1621 -0.51,-0.1621 h -0.5638 z m 4.8722,-2.1481 c -0.5522,0 -0.9281,0.2681 -1.1282,0.8062 -0.04,0.096 -0.102,0.2919 -0.1859,0.5898 -0.0839,0.296 -0.1659,0.6401 -0.2461,1.0341 -0.072,0.36 -0.1318,0.7061 -0.18,1.0341 -0.0479,0.328 -0.072,0.5978 -0.072,0.8059 0,0.2639 0.0802,0.464 0.2401,0.5961 0.1599,0.1318 0.364,0.1979 0.612,0.1979 0.2081,0 0.398,-0.0459 0.5701,-0.1381 0.172,-0.0918 0.32,-0.208 0.4439,-0.3501 0.1241,-0.1397 0.2239,-0.2979 0.2999,-0.4739 0.0762,-0.176 0.1261,-0.3498 0.1502,-0.5179 l 0.432,-2.2 c 0.0318,-0.17 0.042,-0.3379 0.0298,-0.5059 -0.0119,-0.1681 -0.0519,-0.3161 -0.1199,-0.444 -0.0681,-0.1301 -0.1721,-0.2341 -0.3121,-0.314 -0.1398,-0.08 -0.3178,-0.1202 -0.5338,-0.1202 z m 0.1318,5.4601 c 0.0162,-0.112 0.038,-0.22 0.0661,-0.324 0.028,-0.1041 0.0499,-0.2121 0.066,-0.324 -0.008,0 -0.0119,-0.002 -0.0119,-0.006 0,-0.004 -0.004,-0.006 -0.0122,-0.006 -0.184,0.2318 -0.3838,0.4118 -0.5998,0.54 -0.216,0.1278 -0.4921,0.1919 -0.828,0.1919 -0.36,0 -0.644,-0.0941 -0.8521,-0.2821 -0.2081,-0.1879 -0.3121,-0.466 -0.3121,-0.8339 0,-0.2401 0.0261,-0.5519 0.078,-0.936 0.0521,-0.3841 0.1182,-0.7719 0.1981,-1.1639 0.0961,-0.4641 0.1959,-0.872 0.2999,-1.224 0.104,-0.3521 0.2322,-0.646 0.3841,-0.8822 0.1519,-0.2358 0.3359,-0.4118 0.5519,-0.5278 0.216,-0.1162 0.476,-0.174 0.7801,-0.174 0.2959,0 0.5479,0.0598 0.756,0.18 0.2081,0.1199 0.356,0.2758 0.4439,0.468 h 0.0241 c 0.0159,-0.0882 0.034,-0.18 0.0539,-0.2761 0.0201,-0.0961 0.038,-0.188 0.0541,-0.2761 h 0.504 c -0.1919,0.9842 -0.3821,1.9621 -0.57,2.9341 -0.188,0.972 -0.3739,1.946 -0.5579,2.922 z m 3.2961,-0.3841 c 0.262,0 0.4902,-0.0658 0.6801,-0.1979 0.1919,-0.1321 0.3441,-0.32 0.4541,-0.568 0.0479,-0.1041 0.108,-0.2781 0.18,-0.5199 0.072,-0.2441 0.144,-0.5122 0.216,-0.8022 0.07,-0.292 0.1318,-0.5919 0.184,-0.898 0.0518,-0.3079 0.0819,-0.578 0.0898,-0.8079 0,-0.3039 -0.0859,-0.5599 -0.256,-0.7659 -0.172,-0.2081 -0.428,-0.3121 -0.7718,-0.3121 -0.182,0 -0.3742,0.0479 -0.574,0.144 -0.1982,0.0961 -0.3581,0.2781 -0.476,0.5499 -0.0802,0.176 -0.1661,0.4102 -0.2582,0.7002 -0.0919,0.2919 -0.186,0.6879 -0.2798,1.1919 -0.0641,0.3101 -0.108,0.584 -0.1321,0.8201 -0.0241,0.2358 -0.036,0.436 -0.036,0.6038 0,0.2242 0.078,0.424 0.2319,0.5981 0.1562,0.176 0.4062,0.2639 0.748,0.2639 z m 2.668,-6.2858 c 0,0.136 -0.008,0.2959 -0.0238,0.4818 -0.0162,0.184 -0.0462,0.4241 -0.0901,0.72 -0.044,0.296 -0.1041,0.6662 -0.18,1.1061 -0.076,0.44 -0.1741,0.978 -0.294,1.6101 -0.0882,0.464 -0.1859,0.868 -0.2939,1.2078 -0.108,0.3402 -0.2342,0.6262 -0.3782,0.8581 -0.1599,0.2659 -0.354,0.4601 -0.5819,0.5839 -0.2279,0.1242 -0.514,0.186 -0.8581,0.186 -0.2798,0 -0.5119,-0.038 -0.6959,-0.114 -0.184,-0.0759 -0.3319,-0.174 -0.4439,-0.2939 -0.112,-0.1199 -0.1922,-0.254 -0.2401,-0.402 -0.0479,-0.1479 -0.072,-0.2939 -0.072,-0.4379 0,-0.2002 0.0201,-0.468 0.0601,-0.8042 0.04,-0.3359 0.0918,-0.652 0.1559,-0.9479 0.0879,-0.432 0.18,-0.8099 0.2761,-1.1339 0.0958,-0.324 0.1959,-0.578 0.2999,-0.7622 0.1681,-0.3039 0.364,-0.5318 0.5879,-0.684 0.2242,-0.152 0.5241,-0.2279 0.9,-0.2279 0.0799,0 0.176,0.01 0.288,0.03 0.112,0.0201 0.2239,0.0561 0.3362,0.108 0.112,0.0519 0.216,0.1219 0.3118,0.2101 0.0961,0.0878 0.1721,0.2038 0.2282,0.3478 0.0159,0 0.0278,-0.004 0.036,-0.0119 0.04,-0.2319 0.074,-0.43 0.1018,-0.5939 0.028,-0.1641 0.0482,-0.3041 0.0601,-0.4201 0.0119,-0.1159 0.0201,-0.216 0.0241,-0.2999 0.004,-0.0842 0.006,-0.1661 0.006,-0.246 0,-0.2081 -0.0162,-0.402 -0.0479,-0.582 -0.032,-0.18 -0.0941,-0.3382 -0.1862,-0.4739 -0.0919,-0.1361 -0.22,-0.2421 -0.3838,-0.3181 -0.1642,-0.076 -0.3782,-0.1139 -0.6421,-0.1139 -0.104,0 -0.218,0.006 -0.3421,0.0178 -0.1239,0.0119 -0.254,0.0261 -0.3898,0.042 l -0.0482,-0.432 c 0.1681,-0.0238 0.3161,-0.04 0.4442,-0.0479 0.1278,-0.008 0.256,-0.0119 0.3838,-0.0119 0.3362,0 0.614,0.0479 0.834,0.144 0.2202,0.0958 0.392,0.2279 0.5162,0.396 0.1238,0.1678 0.212,0.3659 0.2639,0.5899 0.0518,0.2239 0.0779,0.464 0.0779,0.72 z m 2.6161,6.6699 0.54,-2.7839 h -2.2079 l -0.5281,2.7839 h -0.5278 l 1.1279,-5.868 h 0.5281 l -0.504,2.6161 h 2.2079 l 0.504,-2.6161 h 0.5281 l -1.1282,5.868 z m 4.4402,-0.72 c -0.2001,0.2639 -0.428,0.464 -0.684,0.6001 -0.256,0.1357 -0.5162,0.2038 -0.7801,0.2038 -0.2239,0 -0.4099,-0.0301 -0.5581,-0.0899 -0.148,-0.0601 -0.2659,-0.142 -0.3538,-0.246 -0.0882,-0.1041 -0.1502,-0.2259 -0.1862,-0.366 -0.036,-0.14 -0.0539,-0.286 -0.0539,-0.4379 0,-0.1041 0.006,-0.2041 0.0179,-0.3002 0.0121,-0.0958 0.026,-0.1959 0.0422,-0.2999 l 0.8158,-4.212 h 0.5281 l -0.8161,4.1641 c -0.0159,0.0799 -0.0278,0.1598 -0.036,0.2398 -0.008,0.0802 -0.0119,0.1562 -0.0119,0.2282 0,0.2318 0.0581,0.426 0.174,0.5819 0.116,0.1559 0.33,0.2339 0.6421,0.2339 0.216,0 0.4119,-0.0499 0.5879,-0.15 0.176,-0.1 0.328,-0.2279 0.4561,-0.3838 0.1278,-0.1562 0.2339,-0.3302 0.3178,-0.5221 0.0841,-0.1919 0.1459,-0.3841 0.1862,-0.576 l 0.7319,-3.816 h 0.5159 l -1.1398,5.868 h -0.5162 c 0.0241,-0.1199 0.0502,-0.2401 0.078,-0.36 0.028,-0.1199 0.0501,-0.2401 0.066,-0.36 z m 2.8199,0.8039 c -0.2242,0 -0.4102,-0.0301 -0.5581,-0.0899 -0.148,-0.0601 -0.2659,-0.142 -0.3541,-0.246 -0.0879,-0.1041 -0.1499,-0.2259 -0.1859,-0.366 -0.036,-0.14 -0.0539,-0.286 -0.0539,-0.4379 0,-0.1041 0.006,-0.2041 0.0179,-0.3002 0.0119,-0.0958 0.026,-0.1959 0.0419,-0.2999 l 0.8161,-4.212 h 0.5281 l -0.828,4.2361 c -0.0241,0.1199 -0.036,0.2437 -0.036,0.3719 0,0.2239 0.0578,0.4201 0.1738,0.5879 0.1162,0.1681 0.3302,0.252 0.642,0.252 0.2001,0 0.3841,-0.042 0.5522,-0.1259 0.1678,-0.0839 0.3178,-0.1942 0.4499,-0.3299 0.1321,-0.1361 0.242,-0.29 0.3299,-0.4621 0.0882,-0.172 0.148,-0.3461 0.18,-0.5221 l 0.7682,-4.0079 h 0.5159 c -0.1361,0.7279 -0.2761,1.4459 -0.4201,2.154 -0.144,0.7081 -0.284,1.4219 -0.4198,2.1419 -0.0162,0.0961 -0.032,0.1902 -0.0482,0.282 -0.0159,0.0922 -0.0238,0.1899 -0.0238,0.294 0,0.1601 0.0317,0.316 0.0958,0.468 0.0641,0.1522 0.1641,0.2761 0.3002,0.3722 l -0.4802,1.6798 h -0.468 l 0.4201,-1.5358 c -0.112,-0.0803 -0.2021,-0.1942 -0.2701,-0.3422 -0.0678,-0.1479 -0.0978,-0.2939 -0.0899,-0.4379 -0.0961,0.136 -0.2081,0.2579 -0.3359,0.3659 -0.1281,0.108 -0.2642,0.2002 -0.4082,0.2761 -0.144,0.076 -0.29,0.1341 -0.4379,0.1741 -0.148,0.0399 -0.2861,0.0598 -0.4139,0.0598 z m 5.616,-5.544 c -0.5522,0 -0.9281,0.2681 -1.1282,0.8062 -0.04,0.096 -0.102,0.2919 -0.1859,0.5898 -0.0839,0.296 -0.1659,0.6401 -0.2461,1.0341 -0.072,0.36 -0.1318,0.7061 -0.18,1.0341 -0.0479,0.328 -0.072,0.5978 -0.072,0.8059 0,0.2639 0.0802,0.464 0.2401,0.5961 0.1599,0.1318 0.364,0.1979 0.612,0.1979 0.2081,0 0.398,-0.0459 0.5701,-0.1381 0.172,-0.0918 0.32,-0.208 0.4439,-0.3501 0.1241,-0.1397 0.2239,-0.2979 0.2999,-0.4739 0.0762,-0.176 0.1261,-0.3498 0.1502,-0.5179 l 0.432,-2.2 c 0.0317,-0.17 0.042,-0.3379 0.0298,-0.5059 -0.0119,-0.1681 -0.0519,-0.3161 -0.1199,-0.444 -0.0681,-0.1301 -0.1721,-0.2341 -0.3121,-0.314 -0.1398,-0.08 -0.3178,-0.1202 -0.5338,-0.1202 z m 0.1318,5.4601 c 0.0162,-0.112 0.038,-0.22 0.0661,-0.324 0.028,-0.1041 0.0498,-0.2121 0.066,-0.324 -0.008,0 -0.0119,-0.002 -0.0119,-0.006 0,-0.004 -0.004,-0.006 -0.0122,-0.006 -0.184,0.2318 -0.3838,0.4118 -0.5998,0.54 -0.216,0.1278 -0.4921,0.1919 -0.828,0.1919 -0.36,0 -0.644,-0.0941 -0.8521,-0.2821 -0.2081,-0.1879 -0.3121,-0.466 -0.3121,-0.8339 0,-0.2401 0.0261,-0.5519 0.078,-0.936 0.0521,-0.3841 0.1182,-0.7719 0.1981,-1.1639 0.0961,-0.4641 0.1959,-0.872 0.2999,-1.224 0.104,-0.3521 0.2322,-0.646 0.3841,-0.8822 0.1519,-0.2358 0.3359,-0.4118 0.5519,-0.5278 0.216,-0.1162 0.4759,-0.174 0.7801,-0.174 0.2959,0 0.5479,0.0598 0.756,0.18 0.2081,0.1199 0.356,0.2758 0.4439,0.468 h 0.0241 c 0.0159,-0.0882 0.034,-0.18 0.0539,-0.2761 0.0201,-0.0961 0.0379,-0.188 0.0541,-0.2761 h 0.504 c -0.1919,0.9842 -0.3821,1.9621 -0.57,2.9341 -0.188,0.972 -0.3739,1.946 -0.5579,2.922 z m -25.5401,7.1158 c 0.248,0 0.46,0.036 0.6321,0.108 0.172,0.072 0.3141,0.1678 0.426,0.288 0.114,0.1199 0.1959,0.254 0.2481,0.4019 0.0518,0.148 0.0779,0.294 0.0779,0.438 0.008,0.2321 -0.0181,0.5261 -0.0779,0.8821 -0.0601,0.3558 -0.1302,0.7379 -0.2101,1.1458 -0.0981,0.504 -0.2001,0.932 -0.3081,1.2841 -0.108,0.3521 -0.2398,0.6381 -0.398,0.858 -0.1559,0.22 -0.3478,0.3799 -0.576,0.4799 -0.2299,0.1001 -0.5159,0.15 -0.862,0.15 -0.256,0 -0.472,-0.038 -0.6438,-0.114 -0.172,-0.0759 -0.3121,-0.174 -0.422,-0.2939 -0.108,-0.1199 -0.186,-0.252 -0.2342,-0.396 -0.0479,-0.144 -0.072,-0.288 -0.072,-0.432 0,-0.104 0.006,-0.2239 0.0182,-0.36 0.0119,-0.1361 0.028,-0.2821 0.0479,-0.438 0.0201,-0.1559 0.0419,-0.314 0.066,-0.4739 0.0241,-0.1602 0.0519,-0.3121 0.0839,-0.4561 0.114,-0.5281 0.218,-0.9819 0.3141,-1.3621 0.0961,-0.3798 0.22,-0.6939 0.3719,-0.9419 0.3141,-0.5119 0.8201,-0.7679 1.518,-0.7679 z m -0.0559,0.468 c -0.2081,0 -0.4099,0.0419 -0.606,0.1258 -0.1959,0.0842 -0.362,0.2481 -0.4981,0.4941 -0.0879,0.1599 -0.178,0.4281 -0.2698,0.8079 -0.0922,0.3781 -0.1942,0.8342 -0.3062,1.366 -0.1199,0.646 -0.18,1.1282 -0.18,1.446 0,0.2301 0.07,0.432 0.2101,0.604 0.14,0.1701 0.386,0.256 0.7381,0.256 0.2639,0 0.4938,-0.0598 0.69,-0.18 0.1958,-0.1179 0.354,-0.3138 0.4739,-0.5839 0.0559,-0.144 0.1239,-0.36 0.2041,-0.652 0.0799,-0.29 0.1559,-0.6021 0.2279,-0.936 0.072,-0.3359 0.1321,-0.6679 0.18,-0.9981 0.0479,-0.3299 0.072,-0.612 0.072,-0.8419 0,-0.2721 -0.0819,-0.4901 -0.246,-0.6579 -0.1639,-0.1661 -0.3941,-0.25 -0.69,-0.25 z m 4.1559,0.216 c -0.1979,0 -0.3759,0.0479 -0.5321,0.144 -0.1539,0.0958 -0.2959,0.2239 -0.4238,0.3818 -0.136,0.1843 -0.2562,0.4363 -0.3642,0.754 -0.108,0.3201 -0.1979,0.652 -0.2699,0.9941 -0.07,0.3439 -0.1241,0.6659 -0.1601,0.9701 -0.036,0.3038 -0.0539,0.5258 -0.0539,0.6698 0,0.28 0.07,0.5122 0.2101,0.6942 0.138,0.184 0.4079,0.2758 0.8059,0.2758 0.494,0 0.864,-0.2679 1.11,-0.8019 0.0641,-0.144 0.1321,-0.3561 0.2041,-0.6341 0.072,-0.2798 0.14,-0.58 0.2018,-0.8978 0.0641,-0.32 0.116,-0.6301 0.1562,-0.934 0.04,-0.3041 0.0598,-0.5459 0.0598,-0.7302 0,-0.256 -0.0759,-0.468 -0.2259,-0.6338 -0.1519,-0.1681 -0.392,-0.252 -0.718,-0.252 z m 0.1599,-0.468 c 0.2562,0 0.468,0.0419 0.6321,0.1258 0.1641,0.0842 0.2939,0.1902 0.392,0.3181 0.0961,0.1301 0.1639,0.2701 0.2041,0.4221 0.04,0.1519 0.0598,0.2959 0.0598,0.432 0,0.21 -0.0198,0.462 -0.0598,0.758 -0.0402,0.2959 -0.0921,0.6258 -0.1562,0.9858 -0.0958,0.5142 -0.2038,0.946 -0.32,1.298 -0.1159,0.3541 -0.254,0.6401 -0.4139,0.8601 -0.1621,0.2219 -0.3481,0.3801 -0.5601,0.4759 -0.214,0.0961 -0.464,0.144 -0.754,0.144 -0.2798,0 -0.5159,-0.034 -0.7098,-0.1018 -0.1922,-0.068 -0.3461,-0.1621 -0.464,-0.282 -0.116,-0.1202 -0.1982,-0.258 -0.2461,-0.4142 -0.0479,-0.1559 -0.072,-0.318 -0.072,-0.4858 0,-0.2081 0.0179,-0.464 0.0561,-0.7682 0.036,-0.3039 0.0839,-0.5958 0.1418,-0.8759 l 0.246,-1.224 c 0.072,-0.3679 0.1401,-0.6999 0.2081,-0.9961 0.066,-0.2959 0.136,-0.5919 0.2061,-0.8878 0.1278,-0.4881 0.2559,-0.898 0.388,-1.23 0.1318,-0.3322 0.3099,-0.6001 0.5338,-0.8042 0.2242,-0.2038 0.5142,-0.3557 0.8702,-0.4558 0.3558,-0.1 0.8218,-0.1621 1.3978,-0.1859 0,0.072 0.002,0.144 0.006,0.216 0.004,0.072 0.0102,0.144 0.0182,0.216 -0.5281,0.0238 -0.9499,0.0819 -1.266,0.1737 -0.316,0.0902 -0.57,0.2322 -0.7619,0.4241 -0.1922,0.1899 -0.3402,0.43 -0.4442,0.722 -0.1038,0.29 -0.2078,0.642 -0.3118,1.0559 l -0.1922,0.8042 h 0.0241 c 0.112,-0.1681 0.2299,-0.3002 0.354,-0.396 0.1259,-0.0961 0.25,-0.1681 0.3739,-0.216 0.1242,-0.0482 0.2401,-0.078 0.3501,-0.0902 0.108,-0.0119 0.1979,-0.0178 0.2699,-0.0178 z m 7.0602,4.9439 c -0.184,0.2639 -0.4241,0.4759 -0.72,0.6361 -0.2959,0.1599 -0.58,0.2398 -0.8521,0.2398 -0.3759,0 -0.644,-0.0819 -0.8039,-0.2458 -0.1601,-0.1641 -0.256,-0.3741 -0.288,-0.6301 -0.256,0.328 -0.5159,0.5559 -0.7801,0.684 -0.2639,0.1281 -0.5238,0.1919 -0.7798,0.1919 -0.432,0 -0.7262,-0.108 -0.8821,-0.324 -0.1559,-0.216 -0.2339,-0.4878 -0.2339,-0.8158 0,-0.1522 0.0238,-0.356 0.072,-0.612 l 0.8158,-4.2001 h 0.5281 c -0.1681,0.9281 -0.32,1.726 -0.4561,2.3941 -0.1358,0.6679 -0.256,1.27 -0.36,1.806 -0.0159,0.0799 -0.0278,0.1579 -0.036,0.2338 -0.008,0.076 -0.0119,0.146 -0.0119,0.2101 0,0.2319 0.0519,0.4221 0.1559,0.57 0.104,0.148 0.3042,0.222 0.6001,0.222 0.1919,0 0.3739,-0.0439 0.546,-0.1321 0.172,-0.0879 0.322,-0.2018 0.4501,-0.3419 0.1278,-0.14 0.2358,-0.2979 0.324,-0.4739 0.0879,-0.176 0.144,-0.356 0.1678,-0.54 0.1281,-0.656 0.252,-1.3122 0.3722,-1.9681 0.1199,-0.6559 0.2478,-1.3159 0.3838,-1.98 h 0.504 l -0.8158,4.212 c -0.0162,0.0799 -0.0281,0.1539 -0.036,0.2219 -0.008,0.0681 -0.0122,0.1341 -0.0122,0.1982 0,0.2319 0.0522,0.4238 0.1562,0.576 0.1038,0.1519 0.3078,0.2279 0.612,0.2279 0.1998,0 0.3878,-0.0459 0.5638,-0.1381 0.176,-0.0918 0.33,-0.214 0.4621,-0.3659 0.1321,-0.1519 0.242,-0.32 0.3299,-0.504 0.0882,-0.184 0.148,-0.3719 0.18,-0.5641 l 0.7441,-3.8639 h 0.504 l -0.828,4.2959 c -0.0161,0.0961 -0.032,0.1902 -0.0482,0.282 -0.0159,0.0922 -0.0238,0.19 -0.0238,0.294 0,0.1602 0.032,0.3161 0.0958,0.468 0.0641,0.1522 0.1641,0.2761 0.3002,0.3722 l -0.4802,1.6798 h -0.4677 l 0.4198,-1.5358 c -0.112,-0.0802 -0.2018,-0.1942 -0.2698,-0.3422 -0.0681,-0.1479 -0.0981,-0.2939 -0.0902,-0.4379 z m 4.0201,-4.6681 c -0.5522,0 -0.9281,0.2682 -1.1282,0.8062 -0.04,0.0961 -0.102,0.2919 -0.1859,0.5899 -0.0839,0.2959 -0.1659,0.64 -0.2461,1.034 -0.072,0.36 -0.1318,0.7061 -0.18,1.0341 -0.0479,0.328 -0.072,0.5978 -0.072,0.8059 0,0.2639 0.0802,0.464 0.2401,0.5961 0.1599,0.1318 0.364,0.1979 0.612,0.1979 0.2081,0 0.398,-0.0459 0.5701,-0.1381 0.172,-0.0918 0.32,-0.208 0.4439,-0.35 0.1241,-0.1398 0.2239,-0.298 0.2999,-0.474 0.0762,-0.176 0.1261,-0.3498 0.1502,-0.5179 l 0.432,-2.1999 c 0.0318,-0.1701 0.042,-0.3379 0.0298,-0.506 -0.0119,-0.1681 -0.0519,-0.3161 -0.1199,-0.4439 -0.0681,-0.1301 -0.1721,-0.2342 -0.3121,-0.3141 -0.1398,-0.08 -0.3178,-0.1202 -0.5338,-0.1202 z m 0.1318,5.4601 c 0.0162,-0.112 0.038,-0.22 0.0661,-0.324 0.028,-0.104 0.0499,-0.212 0.066,-0.324 -0.008,0 -0.0119,-0.002 -0.0119,-0.006 0,-0.004 -0.004,-0.006 -0.0122,-0.006 -0.184,0.2319 -0.3838,0.4119 -0.5998,0.54 -0.216,0.1278 -0.4921,0.1919 -0.828,0.1919 -0.36,0 -0.644,-0.0941 -0.8521,-0.2821 -0.2081,-0.1879 -0.3121,-0.466 -0.3121,-0.8339 0,-0.2401 0.0261,-0.5519 0.078,-0.936 0.0521,-0.3841 0.1182,-0.7719 0.1981,-1.1639 0.0961,-0.464 0.1959,-0.872 0.2999,-1.224 0.104,-0.3521 0.2322,-0.646 0.3841,-0.8822 0.1519,-0.2358 0.3359,-0.4118 0.5519,-0.5278 0.216,-0.1162 0.476,-0.174 0.7801,-0.174 0.2959,0 0.5479,0.0598 0.756,0.18 0.2081,0.1199 0.356,0.2758 0.4439,0.468 h 0.0241 c 0.0159,-0.0882 0.034,-0.18 0.0539,-0.2761 0.0201,-0.0961 0.038,-0.1879 0.0541,-0.2761 h 0.504 c -0.1919,0.9842 -0.3821,1.9621 -0.57,2.9341 -0.188,0.972 -0.3739,1.946 -0.5579,2.922 z m 5.9162,-5.868 -1.1279,5.868 h -0.5162 l 0.5281,-2.7119 h -0.936 c -0.248,0 -0.472,0.0598 -0.6721,0.18 -0.1998,0.1199 -0.3798,0.3719 -0.54,0.756 l -0.6599,1.7759 h -0.504 l 0.6959,-1.8519 c 0.0882,-0.2401 0.2001,-0.4561 0.3362,-0.648 0.1358,-0.1922 0.32,-0.328 0.5519,-0.4102 -0.472,-0.214 -0.7081,-0.5819 -0.7081,-1.1018 0,-0.5502 0.1741,-0.9981 0.5222,-1.3402 0.3478,-0.3438 0.862,-0.5159 1.542,-0.5159 z m -1.5599,0.468 c -0.464,0 -0.828,0.1159 -1.0922,0.3501 -0.2639,0.2338 -0.396,0.5641 -0.396,0.9918 0,0.5862 0.3762,0.8782 1.1282,0.8782 h 0.9 l 0.432,-2.2201 z"
     style="fill:#1b1918;fill-rule:evenodd"
     id="path4788"
     inkscape:connector-curvature="0" />
</svg>
